<svg width="42" height="42" viewBox="0 0 42 42" fill="none" xmlns="http://www.w3.org/2000/svg">
<g clip-path="url(#clip0_38216_440)">
<rect x="1" y="1" width="40" height="40" rx="2.96296" fill="white"/>
<path d="M10.5527 23.2339C10.5527 22.8638 10.5567 21.8745 10.5476 21.7526C10.5555 20.2806 9.48525 19.2422 8.80908 19.3231C8.3412 19.3637 7.94907 19.5545 7.73853 20.1033C7.54339 20.6148 7.71785 21.2952 8.36665 21.4548C9.06039 21.6263 9.46549 21.7689 9.75866 21.9702C10.1179 22.2166 10.4111 22.6873 10.4189 23.2345" fill="#0060AF"/>
<path d="M10.8293 25.4718C9.60604 25.4718 8.34889 25.1705 7.09341 24.5746L7.0626 24.5595L7.04787 24.5281C6.48447 23.3388 6.18652 22.0381 6.18652 20.7654C6.18652 19.4947 6.47224 18.2496 7.03606 17.062L7.05155 17.0304L7.08295 17.0147C8.24433 16.4645 9.49369 16.1858 10.7975 16.1858C12.012 16.1858 13.3091 16.496 14.5479 17.0846L14.5797 17.0987L14.5944 17.1309C15.1686 18.342 15.4714 19.6425 15.4714 20.894C15.4714 22.1407 15.1806 23.3869 14.6058 24.5973L14.5906 24.6291L14.5586 24.6439C13.415 25.1852 12.1253 25.4718 10.8293 25.4718ZM7.20961 24.4116C8.42925 24.9853 9.64563 25.275 10.8293 25.275C12.0843 25.275 13.3325 25.0007 14.4436 24.4806C14.9955 23.3077 15.2753 22.1005 15.2753 20.894C15.2753 19.6827 14.9833 18.4226 14.431 17.247C13.2287 16.6819 11.9732 16.3822 10.7975 16.3822C9.53521 16.3822 8.32536 16.6499 7.19906 17.1781C6.65843 18.3292 6.38325 19.5355 6.38325 20.7654C6.38325 21.9977 6.66922 23.2583 7.20961 24.4116Z" fill="#0060AF"/>
<path d="M10.2628 23.2349C10.2651 22.7605 10.0003 22.341 9.65424 22.1156C9.34725 21.9163 8.93512 21.7854 8.27026 21.6168C8.06474 21.5642 7.84976 21.4475 7.7832 21.2986C7.60715 21.476 7.57517 21.8748 7.60615 22.1079C7.64214 22.3776 7.95733 22.8221 8.43191 22.8396C8.72173 22.8512 9.08815 22.7772 9.26387 22.7399C9.56701 22.6744 10.0466 22.8643 10.123 23.2344" fill="#0060AF"/>
<path d="M10.7971 17.0292C9.99239 17.0292 9.2973 17.5599 9.29981 18.4781C9.30232 19.2503 9.92332 19.6637 10.1449 19.959C10.4798 20.4039 10.661 20.9306 10.6799 21.7364C10.6945 22.3778 10.6938 23.0111 10.697 23.2355H10.8747C10.8716 23.0007 10.8635 22.3284 10.8727 21.7166C10.8848 20.9105 11.0726 20.4039 11.4076 19.959C11.6311 19.6637 12.2516 19.2503 12.2529 18.4781C12.256 17.5599 11.5613 17.0292 10.7573 17.0292" fill="#0060AF"/>
<path d="M11.001 23.2339C11.001 22.8638 10.9968 21.8745 11.0057 21.7526C10.9979 20.2806 12.0675 19.2422 12.7443 19.3231C13.2121 19.3637 13.6038 19.5545 13.815 20.1033C14.01 20.6148 13.8345 21.2952 13.1864 21.4548C12.4924 21.6263 12.0878 21.7689 11.7938 21.9702C11.435 22.2166 11.1623 22.6873 11.1539 23.2345" fill="#0060AF"/>
<path d="M11.291 23.2349C11.2885 22.7605 11.5532 22.341 11.8983 22.1156C12.2065 21.9163 12.6192 21.7854 13.2835 21.6168C13.4894 21.5642 13.7041 21.4475 13.7695 21.2986C13.9464 21.476 13.9783 21.8748 13.9473 22.1079C13.9106 22.3776 13.5962 22.8221 13.1225 22.8396C12.8327 22.8512 12.4644 22.7772 12.2894 22.7399C11.9875 22.6744 11.5065 22.8643 11.4298 23.2344" fill="#0060AF"/>
<path d="M11.5395 24.7661L11.4365 24.0147L11.6851 23.977C11.7456 23.9688 11.8193 23.9793 11.8487 24.0172C11.8813 24.0568 11.8913 24.0896 11.8975 24.1415C11.9069 24.2057 11.8883 24.2799 11.816 24.3169V24.3192C11.8968 24.3192 11.9456 24.3772 11.9597 24.4751C11.9618 24.4958 11.9679 24.5458 11.9618 24.5875C11.9454 24.6867 11.8862 24.7186 11.7864 24.7326L11.5395 24.7661ZM11.6995 24.6315C11.7289 24.6273 11.7588 24.6258 11.7822 24.6109C11.8179 24.5875 11.8147 24.5375 11.8097 24.5004C11.7973 24.4189 11.776 24.3879 11.6895 24.4007L11.6352 24.4091L11.6696 24.6357L11.6995 24.6315ZM11.6474 24.2844C11.6803 24.279 11.7249 24.2751 11.7435 24.2438C11.7532 24.223 11.7657 24.2064 11.7575 24.16C11.7474 24.105 11.7291 24.071 11.6593 24.0842L11.5942 24.0947L11.6199 24.2872" fill="#0060AF"/>
<path d="M12.6157 24.3145C12.6176 24.3285 12.6199 24.344 12.6207 24.358C12.6408 24.4951 12.6157 24.6085 12.4616 24.6397C12.2339 24.6836 12.1903 24.5421 12.1502 24.344L12.1289 24.2369C12.0975 24.0473 12.084 23.9039 12.306 23.8597C12.4312 23.8368 12.5139 23.8866 12.5483 24.0112C12.5536 24.0298 12.5603 24.0482 12.5629 24.0669L12.4267 24.095C12.4109 24.0482 12.3901 23.9646 12.3288 23.9716C12.2188 23.9848 12.2551 24.1217 12.2664 24.1789L12.3074 24.3846C12.3197 24.4468 12.3441 24.5461 12.4393 24.527C12.5166 24.5115 12.4829 24.3911 12.476 24.3418" fill="#0060AF"/>
<path d="M12.8352 24.5415L12.7881 23.764L12.9711 23.7082L13.3548 24.3844L13.2107 24.4275L13.1198 24.2557L12.9598 24.3037L12.9805 24.4991L12.8352 24.5415ZM12.9464 24.1781L13.062 24.1447L12.9085 23.83" fill="#0060AF"/>
<path d="M8.31524 23.9542C8.3725 23.7708 8.42381 23.6359 8.64231 23.6958C8.75926 23.7285 8.83176 23.7801 8.82833 23.9159C8.82776 23.9461 8.81778 23.977 8.81125 24.0068L8.67521 23.9693C8.69304 23.8942 8.70434 23.8347 8.61192 23.8063C8.5051 23.777 8.47907 23.9065 8.46433 23.9624L8.409 24.1662C8.39142 24.2268 8.37032 24.3268 8.46433 24.3526C8.54202 24.3735 8.58915 24.2973 8.61728 24.1859L8.5221 24.1607L8.555 24.0428L8.77877 24.1147L8.67253 24.5076L8.56956 24.4797L8.59275 24.3966H8.58982C8.54244 24.4645 8.48459 24.4716 8.43394 24.4619C8.21017 24.4014 8.23353 24.2551 8.28694 24.0597" fill="#0060AF"/>
<path d="M9.14779 24.2856L9.0804 24.6052L8.92871 24.5724L9.09036 23.8261L9.34896 23.8845C9.50032 23.9172 9.54603 23.9846 9.5246 24.1233C9.51237 24.2029 9.47311 24.2887 9.37726 24.2817L9.37625 24.2804C9.45729 24.3088 9.46415 24.3497 9.45 24.4203C9.4439 24.4504 9.40179 24.6328 9.43083 24.6623L9.43184 24.6846L9.27487 24.6437C9.26834 24.5931 9.29053 24.5022 9.29932 24.4519C9.30819 24.4074 9.32234 24.3446 9.27713 24.321C9.24172 24.3021 9.22858 24.303 9.18856 24.2938L9.14779 24.2856ZM9.17366 24.17L9.27579 24.1975C9.33783 24.2065 9.37232 24.1743 9.38454 24.0994C9.39559 24.0307 9.38127 24.0038 9.3256 23.9905L9.2161 23.9683" fill="#0060AF"/>
<path d="M10.1201 23.9931L10.2701 24.0105L10.2055 24.5351C10.1741 24.7015 10.1098 24.7742 9.92678 24.7515C9.7406 24.7279 9.6964 24.6431 9.7077 24.4755L9.77275 23.9512L9.92394 23.9686L9.85906 24.4811C9.85219 24.5367 9.8393 24.6192 9.93833 24.6292C10.0262 24.6359 10.0461 24.5777 10.056 24.5053" fill="#0060AF"/>
<path d="M10.4365 24.7803L10.4816 24.0301L10.7699 24.0425C10.9061 24.0492 10.9417 24.1605 10.9375 24.2666C10.9335 24.3312 10.9134 24.4033 10.8571 24.4424C10.811 24.4756 10.7517 24.4835 10.6967 24.4808L10.6028 24.4756L10.584 24.79L10.4365 24.7803ZM10.6071 24.3612L10.6834 24.3654C10.7454 24.3677 10.7865 24.3432 10.7919 24.2521C10.7949 24.1646 10.7618 24.1498 10.6815 24.1463L10.6209 24.1442" fill="#0060AF"/>
<path d="M30.765 17.7542L29.6194 19.8334C29.187 19.4823 28.659 19.2239 27.9854 19.2239C26.3912 19.2239 25.7437 20.4122 25.7437 21.2493C25.7437 21.8706 26.1505 22.7874 27.569 22.7874C28.1644 22.7874 29.0108 22.3731 29.2544 22.1847L28.1214 24.5969C27.5814 24.7047 27.404 24.7715 26.9468 24.7856C24.408 24.8614 23.3821 23.3018 23.3828 21.7081C23.3845 19.6013 25.2576 17.0391 28.3628 17.0391C28.5531 17.0391 28.7858 17.1049 28.9848 17.1779L29.1859 16.9207" fill="#0060AF"/>
<path d="M35.4921 16.9858L35.8165 24.5429H33.4023L33.4009 23.2469H31.7547L31.2129 24.5429H28.5947L31.332 19.1465L30.7147 19.1425L31.8875 16.9858H35.4921ZM33.3852 19.2977L32.4545 21.4958H33.4133" fill="#0060AF"/>
<path d="M21.8587 16.9859C23.0543 16.9926 23.7299 17.6415 23.7299 18.579C23.7299 19.4432 23.0174 20.2082 22.2352 20.6037C23.0405 20.8997 23.1101 21.6264 23.1101 22.1405C23.1101 23.3825 21.8639 24.543 20.2439 24.543H16.7109L18.0891 19.2218L17.523 19.2185L18.6802 16.9859C18.6802 16.9859 20.8866 16.9792 21.8587 16.9859ZM20.6858 20.0499C20.9331 20.0499 21.3698 19.9872 21.4789 19.5086C21.5986 18.9891 21.1888 18.9751 20.9922 18.9751L20.2898 18.972L20.0449 20.0499L20.6858 20.0499ZM19.6928 21.3853L19.3694 22.6273H20.1964C20.5218 22.6273 20.9653 22.4658 21.0739 22.0616C21.1812 21.6563 20.8712 21.3853 20.547 21.3853" fill="#0060AF"/>
</g>
<rect x="0.62963" y="0.62963" width="40.7407" height="40.7407" rx="3.33333" stroke="#D5D7DA" stroke-width="0.740741"/>
<defs>
<clipPath id="clip0_38216_440">
<rect x="1" y="1" width="40" height="40" rx="2.96296" fill="white"/>
</clipPath>
</defs>
</svg>
