<svg width="42" height="42" viewBox="0 0 42 42" fill="none" xmlns="http://www.w3.org/2000/svg">
<g clip-path="url(#clip0_38216_423)">
<rect x="1.00098" y="1" width="40" height="40" rx="2.96296" fill="white"/>
<path d="M15.6804 15.4423H7.89545C6.9515 15.4423 6.18555 16.2268 6.18555 17.1957V24.9033C6.18555 25.8633 6.93635 26.6428 7.86983 26.6566L15.6748 26.6569C16.6188 26.6569 17.3865 25.8722 17.3865 24.9033L17.3903 17.1957C17.3903 16.2268 16.6241 15.4423 15.6804 15.4423ZM8.8207 25.7584L8.39584 25.7635C7.88142 25.7635 7.46614 25.34 7.46614 24.8195L7.46302 24.7444V17.6268L7.46614 17.2431C7.48686 16.7396 7.86894 16.3328 8.37022 16.3328H9.23308C10.0166 16.3328 10.6502 17.0134 10.6502 17.815C10.6502 18.2131 10.4943 18.5725 10.2421 18.8352L8.04027 21.0684L10.1049 23.1715C10.37 23.4465 10.5304 23.8072 10.5304 24.2013C10.5304 25.061 9.76644 25.7584 8.8207 25.7584ZM15.168 25.7519L11.3184 25.7508C11.3184 25.7508 11.7635 24.7879 11.7635 24.1928C11.7635 23.4672 11.5209 22.8178 11.141 22.3891L9.82503 21.0466L11.1671 19.6595C11.5688 19.2821 11.8339 18.6144 11.8339 17.8549C11.8339 17.2532 11.6677 16.72 11.3986 16.3328H12.3319C13.1147 16.3328 13.749 17.0134 13.749 17.815C13.749 18.2131 13.5937 18.5725 13.3422 18.8352L11.1811 21.0457L15.6681 25.6216C15.5251 25.7111 15.3464 25.7519 15.168 25.7519ZM16.107 24.3227L12.8911 21.045L14.4225 19.4891C14.7346 19.0981 14.9334 18.511 14.9334 17.8549C14.9334 17.2496 14.764 16.7024 14.4938 16.3154L15.1784 16.3368C15.692 16.3368 16.1097 16.759 16.1097 17.281L16.107 24.3227Z" fill="#00529C"/>
<path d="M24.29 20.5236C24.3526 20.461 24.4266 20.3803 24.5119 20.2816C24.597 20.1829 24.6777 20.0664 24.7538 19.9319C24.83 19.7973 24.8951 19.6474 24.9488 19.4814C25.0027 19.3156 25.0297 19.1385 25.0297 18.9503C25.0297 18.5829 24.9668 18.24 24.8414 17.9216C24.7157 17.6035 24.523 17.3254 24.263 17.0877C24.003 16.8505 23.6782 16.6642 23.2881 16.5296C22.8982 16.3953 22.4431 16.328 21.9233 16.328H21.9091H20.4146H20.0256H18.4941V18.0422V23.9764V25.7411H22.2595C22.8062 25.7411 23.2834 25.6671 23.6916 25.5192C24.0993 25.3713 24.4379 25.1674 24.7068 24.9074C24.9757 24.6474 25.1751 24.3449 25.3052 23.9998C25.4351 23.6547 25.5002 23.2848 25.5002 22.8903C25.5002 22.3614 25.3792 21.8908 25.1373 21.4782C24.8951 21.0661 24.6126 20.7477 24.29 20.5236ZM22.6251 18.0529C22.7519 18.1012 22.8577 18.164 22.9403 18.2431C23.1544 18.4485 23.2616 18.694 23.2616 18.9797C23.2616 19.2388 23.2168 19.4529 23.1277 19.6224C23.0384 19.7922 22.949 19.9216 22.8599 20.0107H20.2424V17.9417H21.8694C22.1744 17.9417 22.4255 17.9793 22.6251 18.0529ZM22.3535 21.6398C22.8274 21.6398 23.1785 21.7625 23.4071 22.0076C23.6221 22.2489 23.7304 22.5336 23.7304 22.8631C23.7304 23.2026 23.6076 23.4925 23.3621 23.7335C23.1163 23.9746 22.7127 24.0953 22.1501 24.0953H21.94H20.2424V21.6398H22.3535Z" fill="#00529C"/>
<path d="M31.8853 21.6868C32.1676 21.4941 32.4031 21.2699 32.5914 21.0144C32.7796 20.7589 32.9184 20.4766 33.0082 20.1673C33.0978 19.8579 33.1428 19.542 33.1428 19.2192C33.1428 18.7979 33.073 18.4102 32.9342 18.056C32.795 17.702 32.5867 17.3972 32.3089 17.1416C32.0308 16.8861 31.6835 16.6867 31.2667 16.5432C30.8498 16.4 30.3679 16.328 29.8212 16.328H29.772H26.1501H26.1162V25.7411H27.8983V22.2449H28.8919L31.3495 25.7411H33.4384L30.897 22.1239C31.2733 22.0254 31.6028 21.8797 31.8853 21.6868ZM29.8346 17.9417C29.9466 17.9417 30.0525 17.949 30.1532 17.9617C30.4708 18.0096 30.7304 18.123 30.9305 18.3033C31.2027 18.549 31.3388 18.8502 31.3388 19.2071C31.3388 19.386 31.3096 19.56 31.2517 19.7296C31.1936 19.8993 31.1022 20.0488 30.9772 20.178C30.852 20.3077 30.6914 20.4124 30.4951 20.4928C30.2986 20.5733 30.062 20.6134 29.7853 20.6134H27.8983V17.9417H29.8346Z" fill="#00529C"/>
<path d="M34.0669 16.328V16.3307C34.0488 16.3302 34.0312 16.328 34.0132 16.328H33.998V16.3287V19.779V22.2513V25.7411H35.8151V16.328H34.0669Z" fill="#00529C"/>
</g>
<rect x="0.62963" y="0.62963" width="40.7407" height="40.7407" rx="8.37037" stroke="#D5D7DA" stroke-width="0.740741"/>
<defs>
<clipPath id="clip0_38216_423">
<rect x="1" y="1" width="40" height="40" rx="8" fill="white"/>
</clipPath>
</defs>
</svg>
