<svg width="42" height="42" viewBox="0 0 42 42" fill="none" xmlns="http://www.w3.org/2000/svg">
<g clip-path="url(#clip0_38216_405)">
<rect x="1" y="1" width="40" height="40" rx="2.96296" fill="white"/>
<path fill-rule="evenodd" clip-rule="evenodd" d="M6.18848 19.57L8.68811 22.7232L6.18848 24.7945V19.57Z" fill="#F15A23"/>
<path fill-rule="evenodd" clip-rule="evenodd" d="M7.19531 24.7947L9.07616 23.2213L10.3762 24.7947H7.19531Z" fill="#F15A23"/>
<path fill-rule="evenodd" clip-rule="evenodd" d="M6.18848 17.8826L6.84079 18.7077L9.52284 22.0592L10.3919 21.3671C10.3919 21.3671 9.67043 20.5177 9.18598 19.5698C8.23882 17.7166 8.90938 16.5628 8.90938 16.5628H6.18848V17.8826Z" fill="#F15A23"/>
<path fill-rule="evenodd" clip-rule="evenodd" d="M9.90625 22.5776L10.7914 21.8466C10.7914 21.8466 11.6367 22.9593 12.6169 23.222C13.9014 23.5661 14.4701 22.7241 14.4701 22.7241V24.7954H11.6488L12.285 24.2454C12.285 24.2454 11.9531 24.4666 11.1413 23.9044C10.6622 23.5725 9.90625 22.5776 9.90625 22.5776Z" fill="#F15A23"/>
<path fill-rule="evenodd" clip-rule="evenodd" d="M9.98659 16.5573C9.98659 16.5573 9.70423 16.942 9.90522 17.8831C10.1201 18.8891 10.9744 19.9538 10.9724 19.9299C10.9724 19.9299 11.0274 18.8728 11.6478 18.2524C12.9701 16.93 14.469 17.7172 14.469 17.7172V16.5634L9.98659 16.5573Z" fill="#F15A23"/>
<path fill-rule="evenodd" clip-rule="evenodd" d="M14.4698 19.1117C14.4698 19.1117 13.6335 18.3954 12.9065 18.3954C11.9764 18.3954 11.4688 19.1983 11.4688 19.7808C11.4688 20.6292 11.876 21.1006 12.2847 21.5093C12.8721 22.0967 13.5867 22.7302 14.4698 22.2203C14.4698 21.2553 14.4698 19.1117 14.4698 19.1117Z" fill="#F15A23"/>
<path fill-rule="evenodd" clip-rule="evenodd" d="M23.9932 16.6437H25.9666C25.9666 16.6437 27.7147 19.2907 28.5739 20.3843C29.433 21.4779 30.3578 22.7236 30.3578 22.7236C30.3578 22.7236 30.3578 19.1113 30.3578 17.2365C30.3578 16.9995 29.7356 16.6437 29.7356 16.6437H32.0112C32.0112 16.6437 31.2645 16.9505 31.2645 17.2365C31.2645 19.5704 31.2645 25.219 31.2645 25.219C31.2645 25.219 30.548 24.8217 29.7356 23.8776C28.8227 22.8168 25.5754 18.5343 25.5754 18.5343C25.5754 18.5343 25.5754 22.5772 25.5754 24.0812C25.5754 24.3652 26.1977 24.7949 26.1977 24.7949H23.9932C23.9932 24.7949 24.5976 24.3618 24.5976 24.0812C24.5976 22.0598 24.5976 19.1113 24.5976 17.2365C24.5976 16.9846 23.9932 16.6437 23.9932 16.6437Z" fill="#005E6A"/>
<path fill-rule="evenodd" clip-rule="evenodd" d="M33.2852 16.6437H35.8179C35.8179 16.6437 35.1378 16.9658 35.1378 17.2365C35.1378 19.1113 35.1378 22.22 35.1378 24.0812C35.1378 24.3769 35.8179 24.7949 35.8179 24.7949H33.2852C33.2852 24.7949 33.9183 24.3674 33.9183 24.0812C33.9183 21.8461 33.9183 19.1113 33.9183 17.2365C33.9183 16.9763 33.2852 16.6437 33.2852 16.6437Z" fill="#005E6A"/>
<path fill-rule="evenodd" clip-rule="evenodd" d="M16.542 16.6437C16.542 16.6437 17.1986 16.9711 17.1986 17.2365C17.1986 19.1113 17.1986 21.8461 17.1986 24.0812C17.1986 24.3721 16.542 24.7949 16.542 24.7949C16.542 24.7949 19.8223 24.7949 20.2942 24.7949C20.5287 24.7949 23.1552 24.3654 23.1552 22.3405C23.1552 20.3156 21.115 20.126 21.115 20.126C21.115 20.126 22.3579 19.7804 22.3579 18.395C22.3579 16.9017 20.5287 16.6437 20.2942 16.6437C19.8068 16.6437 16.542 16.6437 16.542 16.6437ZM18.5353 19.9918V17.4434C18.5353 17.4434 19.623 17.4434 20.0597 17.4434C20.2942 17.4434 21.115 17.7172 21.115 18.7331C21.115 19.5704 20.2942 19.9918 20.0597 19.9918C19.528 19.9918 18.5353 19.9918 18.5353 19.9918ZM18.5353 20.6601C18.5353 20.6601 20.0597 20.6601 20.2942 20.6601C20.5287 20.6601 21.9123 21.0195 21.9123 22.22C21.9123 23.4439 20.5287 23.8776 20.2942 23.8776C20.0597 23.8776 18.5353 23.8776 18.5353 23.8776V20.6601Z" fill="#005E6A"/>
</g>
<rect x="0.62963" y="0.62963" width="40.7407" height="40.7407" rx="8.37037" stroke="#D5D7DA" stroke-width="0.740741"/>
<defs>
<clipPath id="clip0_38216_405">
<rect x="1" y="1" width="40" height="40" rx="8" fill="white"/>
</clipPath>
</defs>
</svg>
