<svg width="42" height="42" viewBox="0 0 42 42" fill="none" xmlns="http://www.w3.org/2000/svg">
<rect x="0.62963" y="0.62963" width="40.7407" height="40.7407" rx="8.37037" stroke="#D5D7DA" stroke-width="0.740741"/>
<path fill-rule="evenodd" clip-rule="evenodd" d="M27.9985 16.8893C27.4281 17.2305 26.0827 18.0275 25.5805 18.3243C25.2744 18.4853 24.5655 18.5557 24.1646 17.9972C24.1574 17.9872 23.6313 17.3082 23.6098 17.2826C23.5948 17.2645 23.2546 16.7434 22.4968 16.7271C22.3848 16.7244 21.8281 16.7213 21.2849 17.0402C20.5629 17.4663 18.8837 18.4579 18.8837 18.4579C18.8832 18.4579 18.8832 18.4588 18.8824 18.4588C18.1921 18.8667 17.6543 19.1843 17.6543 19.1843L18.2897 19.9904C18.587 20.3717 19.2573 20.6666 19.8386 20.3219C19.8386 20.3219 21.9865 19.0372 21.9944 19.0334C22.9234 18.5072 23.6401 18.5072 24.1159 18.703C24.5429 18.8894 24.9144 19.3538 24.9144 19.3538C24.9144 19.3538 25.3999 19.9753 25.4856 20.084C25.7618 20.4352 26.2191 20.2972 26.2191 20.2972C26.2191 20.2972 26.3885 20.2774 26.6439 20.1208C26.6439 20.1208 28.7244 18.8747 28.7258 18.8743C29.3864 18.474 29.9923 18.3992 30.302 18.4286C31.2719 18.5197 31.5732 19.2196 31.9938 19.7078C32.2414 19.995 32.4649 20.1581 32.8067 20.1499C33.0312 20.145 33.2849 20.0043 33.3223 19.9789L35.8137 18.4938C35.8137 18.4938 35.5581 18.0961 35.0346 17.4774C34.566 16.9253 34.0683 17.1751 33.6715 17.3781C33.5048 17.4632 32.9008 17.8783 32.3023 18.1678C31.8759 18.374 31.2635 18.312 30.9278 17.8836C30.9077 17.8576 30.3647 17.1785 30.3076 17.0949C30.0884 16.8113 29.6608 16.5574 29.1127 16.5574C28.7795 16.5574 28.4013 16.6513 27.9985 16.8893Z" fill="url(#paint0_linear_38216_464)"/>
<path fill-rule="evenodd" clip-rule="evenodd" d="M6.21385 22.6957C6.21385 22.2523 6.20604 21.8802 6.18262 21.5484H6.99528L7.03339 22.1184H7.05619C7.24038 21.8172 7.57722 21.4609 8.20554 21.4609C8.69596 21.4609 9.07903 21.7465 9.23964 22.1737H9.25541C9.38589 21.9601 9.53861 21.8019 9.71468 21.6907C9.92175 21.5405 10.1594 21.4609 10.4658 21.4609C11.0863 21.4609 11.7141 21.8961 11.7141 23.1309V25.402H10.7949V23.2736C10.7949 22.6326 10.5807 22.2523 10.1289 22.2523C9.80658 22.2523 9.56883 22.4901 9.4699 22.7672C9.44663 22.8619 9.42368 22.9807 9.42368 23.0907V25.402H8.50412V23.1703C8.50412 22.6326 8.29759 22.2523 7.86081 22.2523C7.50835 22.2523 7.27114 22.5376 7.18666 22.8061C7.14809 22.9017 7.13263 23.0122 7.13263 23.1228V25.402H6.21385V22.6957Z" fill="#003A70"/>
<path fill-rule="evenodd" clip-rule="evenodd" d="M15.2952 24.4757C15.2952 24.8237 15.3106 25.1634 15.3489 25.4015H14.4982L14.4371 24.9743H14.4139C14.1842 25.2752 13.7934 25.4886 13.3108 25.4886C12.5598 25.4886 12.1387 24.9272 12.1387 24.3412C12.1387 23.3675 12.9734 22.8773 14.3526 22.8852V22.8216C14.3526 22.5683 14.2529 22.1491 13.5941 22.1491C13.2262 22.1491 12.843 22.2679 12.5903 22.4338L12.4062 21.8013C12.6825 21.6268 13.1656 21.4604 13.755 21.4604C14.9507 21.4604 15.2952 22.2444 15.2952 23.0828V24.4757ZM14.3756 23.5175C13.7091 23.5015 13.0734 23.6519 13.0734 24.2376C13.0734 24.617 13.3108 24.7915 13.6097 24.7915C13.9847 24.7915 14.2609 24.5381 14.345 24.2613C14.3678 24.19 14.3756 24.1106 14.3756 24.0475V23.5175Z" fill="#003A70"/>
<path fill-rule="evenodd" clip-rule="evenodd" d="M15.9478 22.6957C15.9478 22.2523 15.9393 21.8802 15.917 21.5484H16.7437L16.7899 22.126H16.8126C16.9737 21.8256 17.3797 21.4609 18.0001 21.4609C18.6515 21.4609 19.3257 21.8961 19.3257 23.1151V25.402H18.3835V23.2261C18.3835 22.6718 18.1843 22.2523 17.6709 22.2523C17.2955 22.2523 17.0351 22.5293 16.9352 22.8222C16.9051 22.9095 16.8971 23.0285 16.8971 23.1385V25.402H15.9478V22.6957Z" fill="#003A70"/>
<path fill-rule="evenodd" clip-rule="evenodd" d="M23.4099 19.9993V24.3169C23.4099 24.7125 23.425 25.1406 23.4404 25.4014H22.5976L22.5599 24.7922H22.5443C22.322 25.2197 21.8692 25.4885 21.3259 25.4885C20.4376 25.4885 19.7325 24.7053 19.7325 23.5182C19.7247 22.2282 20.5061 21.4604 21.4024 21.4604C21.9155 21.4604 22.2836 21.6823 22.4519 21.9674H22.4674V19.9993H23.4099ZM22.468 23.1527C22.468 23.0744 22.4601 22.979 22.4454 22.9001C22.361 22.5203 22.062 22.2115 21.633 22.2115C21.0277 22.2115 20.6906 22.7657 20.6906 23.4858C20.6906 24.1899 21.0277 24.7044 21.6253 24.7044C22.0082 24.7044 22.3455 24.4354 22.4373 24.0161C22.4601 23.9287 22.468 23.8338 22.468 23.7306V23.1527Z" fill="#003A70"/>
<path fill-rule="evenodd" clip-rule="evenodd" d="M24.0762 25.4019H25.0271V21.5486H24.0762V25.4019Z" fill="#003A70"/>
<path fill-rule="evenodd" clip-rule="evenodd" d="M25.6939 22.79C25.6939 22.2679 25.686 21.8955 25.6631 21.5476H26.483L26.513 22.2833H26.5448C26.7283 21.7373 27.1651 21.5476 27.5633 21.5476C27.6551 21.5476 27.7086 21.5314 27.7855 21.5476V22.4025C27.7086 22.3867 27.6246 22.3709 27.5096 22.3709C27.0577 22.3709 26.751 22.6713 26.6668 23.1063C26.6519 23.1934 26.6364 23.2967 26.6364 23.408V25.4014H25.6939V22.79Z" fill="#003A70"/>
<path fill-rule="evenodd" clip-rule="evenodd" d="M28.2227 25.4019H29.1722V21.5486H28.2227V25.4019Z" fill="#003A70"/>
<defs>
<linearGradient id="paint0_linear_38216_464" x1="17.6543" y1="20.4746" x2="35.8137" y2="20.4746" gradientUnits="userSpaceOnUse">
<stop stop-color="#FFCA06"/>
<stop offset="0.330844" stop-color="#FBAA18"/>
<stop offset="0.694742" stop-color="#FFC907"/>
<stop offset="1" stop-color="#FAA619"/>
</linearGradient>
</defs>
</svg>
