<svg width="38" height="38" viewBox="0 0 38 38" fill="none" xmlns="http://www.w3.org/2000/svg">
<rect width="38" height="38" rx="4" fill="#E9EAEB"/>
<path d="M9.39062 25V13.7266H13.9453C14.7526 13.7266 15.4453 13.8698 16.0234 14.1562C16.6016 14.4427 17.0443 14.8464 17.3516 15.3672C17.6589 15.888 17.8125 16.5078 17.8125 17.2266V17.2422C17.8125 17.987 17.625 18.6484 17.25 19.2266C16.8802 19.7995 16.362 20.2057 15.6953 20.4453L18.1562 25H15.8594L13.6406 20.7578C13.6302 20.7578 13.6146 20.7578 13.5938 20.7578C13.5729 20.7578 13.5547 20.7578 13.5391 20.7578H11.4062V25H9.39062ZM11.4062 19.2109H13.7344C14.375 19.2109 14.8724 19.0417 15.2266 18.7031C15.5807 18.3646 15.7578 17.8932 15.7578 17.2891V17.2734C15.7578 16.6849 15.5729 16.2188 15.2031 15.875C14.8385 15.526 14.3359 15.3516 13.6953 15.3516H11.4062V19.2109ZM19.7425 27.8359V16.4609H21.6878V17.7969H21.8206C21.9769 17.4896 22.18 17.2266 22.43 17.0078C22.6852 16.7891 22.9795 16.6198 23.3128 16.5C23.6461 16.3802 24.0133 16.3203 24.4144 16.3203C25.1279 16.3203 25.7451 16.5 26.2659 16.8594C26.792 17.2188 27.1982 17.7292 27.4847 18.3906C27.7764 19.0469 27.9222 19.8255 27.9222 20.7266V20.7422C27.9222 21.6484 27.779 22.4297 27.4925 23.0859C27.206 23.7422 26.7998 24.25 26.2738 24.6094C25.7529 24.9635 25.1331 25.1406 24.4144 25.1406C24.0238 25.1406 23.6592 25.0807 23.3206 24.9609C22.9821 24.8359 22.6852 24.6615 22.43 24.4375C22.1748 24.2135 21.9717 23.9479 21.8206 23.6406H21.6878V27.8359H19.7425ZM23.805 23.5C24.2477 23.5 24.6279 23.3906 24.9456 23.1719C25.2633 22.9479 25.5081 22.6302 25.68 22.2188C25.8519 21.8021 25.9378 21.3099 25.9378 20.7422V20.7266C25.9378 20.1484 25.8519 19.6536 25.68 19.2422C25.5081 18.8307 25.2633 18.5156 24.9456 18.2969C24.6279 18.0729 24.2477 17.9609 23.805 17.9609C23.3623 17.9609 22.9795 18.0729 22.6566 18.2969C22.3389 18.5156 22.0915 18.8307 21.9144 19.2422C21.7425 19.6536 21.6566 20.1458 21.6566 20.7188V20.7344C21.6566 21.3073 21.7425 21.8021 21.9144 22.2188C22.0915 22.6302 22.3415 22.9479 22.6644 23.1719C22.9873 23.3906 23.3675 23.5 23.805 23.5Z" fill="#0A0D12"/>
</svg>
