<svg width="160" height="42" viewBox="0 0 160 42" fill="none" xmlns="http://www.w3.org/2000/svg">
<rect width="160" height="42" fill="white"/>
<g clip-path="url(#clip0_31417_1659)">
<mask id="mask0_31417_1659" style="mask-type:luminance" maskUnits="userSpaceOnUse" x="0" y="0" width="42" height="42">
<path d="M42 0H0V42H42V0Z" fill="white"/>
</mask>
<g mask="url(#mask0_31417_1659)">
<path fill-rule="evenodd" clip-rule="evenodd" d="M22.5 0H19.5V13.2832L14.524 0.967222L11.7425 2.09104L16.8474 14.726L7.21142 5.09009L5.09011 7.21142L14.3257 16.447L2.35706 11.2178L1.15596 13.9669L13.8202 19.5H0V22.5H13.8202L1.15597 28.0331L2.35706 30.7822L14.3257 25.553L5.09011 34.7886L7.21142 36.9098L16.8474 27.274L11.7425 39.909L14.524 41.0327L19.5 28.7169V42H22.5V28.7169L27.476 41.0327L30.2574 39.909L25.1528 27.274L34.7886 36.9098L36.9098 34.7886L27.6742 25.553L39.643 30.7822L40.8439 28.0331L28.1799 22.5H42V19.5H28.1797L40.8439 13.9669L39.643 11.2178L27.6742 16.447L36.9098 7.2114L34.7886 5.09009L25.1528 14.726L30.2574 2.09104L27.476 0.967222L22.5 13.2832V0Z" fill="#0A0D12"/>
</g>
</g>
<path d="M58.9453 30.3164C57.6016 30.3164 56.4297 30.1211 55.4297 29.7305C54.4375 29.332 53.6562 28.7656 53.0859 28.0312C52.5234 27.2891 52.207 26.4023 52.1367 25.3711L52.125 25.1836H55.4766L55.5 25.3125C55.5703 25.7422 55.7617 26.1172 56.0742 26.4375C56.3945 26.75 56.8047 26.9961 57.3047 27.1758C57.8125 27.3555 58.3867 27.4453 59.0273 27.4453C59.6836 27.4453 60.25 27.3555 60.7266 27.1758C61.2031 26.9961 61.5703 26.7422 61.8281 26.4141C62.0859 26.0859 62.2148 25.707 62.2148 25.2773V25.2656C62.2148 24.7031 61.9883 24.2578 61.5352 23.9297C61.0898 23.6016 60.3438 23.332 59.2969 23.1211L57.5039 22.7578C55.8242 22.4219 54.5664 21.8516 53.7305 21.0469C52.8945 20.2422 52.4766 19.2031 52.4766 17.9297V17.918C52.4844 16.8867 52.7617 15.9883 53.3086 15.2227C53.8633 14.4492 54.625 13.8477 55.5938 13.418C56.5703 12.9883 57.6797 12.7734 58.9219 12.7734C60.2344 12.7734 61.3633 12.9805 62.3086 13.3945C63.2539 13.8008 63.9922 14.375 64.5234 15.1172C65.0625 15.8594 65.3594 16.7188 65.4141 17.6953L65.4258 17.9062H62.0859L62.0742 17.7656C62.0117 17.3203 61.8438 16.9414 61.5703 16.6289C61.2969 16.3164 60.9336 16.0742 60.4805 15.9023C60.0352 15.7305 59.5156 15.6445 58.9219 15.6445C58.3281 15.6445 57.8125 15.7344 57.375 15.9141C56.9453 16.0859 56.6094 16.3242 56.3672 16.6289C56.1328 16.9336 56.0156 17.2891 56.0156 17.6953V17.707C56.0156 18.2461 56.2422 18.6797 56.6953 19.0078C57.1484 19.3359 57.8633 19.6016 58.8398 19.8047L60.6211 20.168C61.8086 20.4023 62.7812 20.7266 63.5391 21.1406C64.2969 21.5547 64.8555 22.0781 65.2148 22.7109C65.5742 23.3359 65.7539 24.0898 65.7539 24.9727V24.9844C65.7539 26.0703 65.4805 27.0156 64.9336 27.8203C64.3945 28.6172 63.6172 29.2344 62.6016 29.6719C61.5859 30.1016 60.3672 30.3164 58.9453 30.3164ZM67.9336 30V12.9258H71.3555V19.5117H71.4492C71.7695 18.7461 72.2539 18.1562 72.9023 17.7422C73.5508 17.3203 74.3438 17.1094 75.2812 17.1094C76.1953 17.1094 76.9805 17.3086 77.6367 17.707C78.293 18.1055 78.7969 18.6719 79.1484 19.4062C79.5 20.1406 79.6758 21.0156 79.6758 22.0312V30H76.2539V22.7461C76.2539 21.8633 76.0469 21.1758 75.6328 20.6836C75.2266 20.1914 74.6328 19.9453 73.8516 19.9453C73.3438 19.9453 72.9023 20.0664 72.5273 20.3086C72.1523 20.543 71.8633 20.8711 71.6602 21.293C71.457 21.7148 71.3555 22.2031 71.3555 22.7578V30H67.9336ZM82.125 30V17.3789H85.5469V30H82.125ZM83.8359 15.7031C83.3203 15.7031 82.8828 15.5273 82.5234 15.1758C82.1719 14.8164 81.9961 14.3906 81.9961 13.8984C81.9961 13.3984 82.1719 12.9727 82.5234 12.6211C82.8828 12.2695 83.3203 12.0938 83.8359 12.0938C84.3594 12.0938 84.7969 12.2695 85.1484 12.6211C85.5078 12.9727 85.6875 13.3984 85.6875 13.8984C85.6875 14.3906 85.5078 14.8164 85.1484 15.1758C84.7969 15.5273 84.3594 15.7031 83.8359 15.7031ZM88.043 30V17.3789H91.4648V19.5352H91.5586C91.7461 18.7773 92.0938 18.1875 92.6016 17.7656C93.1094 17.3438 93.7383 17.1328 94.4883 17.1328C94.6914 17.1328 94.8828 17.1445 95.0625 17.168C95.2422 17.1914 95.3984 17.2266 95.5312 17.2734V20.2734C95.3672 20.2109 95.1719 20.1641 94.9453 20.1328C94.7188 20.1016 94.4805 20.0859 94.2305 20.0859C93.6523 20.0859 93.1562 20.1953 92.7422 20.4141C92.3281 20.6328 92.0117 20.957 91.793 21.3867C91.5742 21.8086 91.4648 22.3242 91.4648 22.9336V30H88.043ZM102.598 30.2227C101.168 30.2227 100.117 29.9336 99.4453 29.3555C98.7734 28.7773 98.4375 27.8242 98.4375 26.4961V19.957H96.6445V17.3789H98.4375V14.3086H101.895V17.3789H104.262V19.957H101.895V26.0508C101.895 26.6289 102.023 27.0391 102.281 27.2812C102.547 27.5156 102.945 27.6328 103.477 27.6328C103.641 27.6328 103.781 27.6289 103.898 27.6211C104.023 27.6055 104.145 27.5898 104.262 27.5742V30.082C104.066 30.1211 103.828 30.1523 103.547 30.1758C103.266 30.207 102.949 30.2227 102.598 30.2227Z" fill="#0A0D12"/>
<defs>
<clipPath id="clip0_31417_1659">
<rect width="42" height="42" fill="white"/>
</clipPath>
</defs>
</svg>
