<svg width="21" height="20" viewBox="0 0 21 20" fill="none" xmlns="http://www.w3.org/2000/svg">
<path d="M10.5 14.3959L7.0417 16.4792C6.88892 16.5764 6.7292 16.6181 6.56253 16.6042C6.39586 16.5903 6.25003 16.5347 6.12503 16.4375C6.00003 16.3403 5.90281 16.2189 5.83336 16.0734C5.76392 15.9278 5.75003 15.7645 5.7917 15.5834L6.70836 11.6459L3.64586 9.00002C3.50697 8.87502 3.42031 8.73252 3.38586 8.57252C3.35142 8.41252 3.3617 8.25641 3.4167 8.10419C3.4717 7.95197 3.55503 7.82696 3.6667 7.72919C3.77836 7.63141 3.93114 7.56891 4.12503 7.54169L8.1667 7.18752L9.7292 3.47919C9.79864 3.31252 9.90642 3.18752 10.0525 3.10419C10.1986 3.02085 10.3478 2.97919 10.5 2.97919C10.6523 2.97919 10.8014 3.02085 10.9475 3.10419C11.0936 3.18752 11.2014 3.31252 11.2709 3.47919L12.8334 7.18752L16.875 7.54169C17.0695 7.56947 17.2223 7.63196 17.3334 7.72919C17.4445 7.82641 17.5278 7.95141 17.5834 8.10419C17.6389 8.25697 17.6495 8.41335 17.615 8.57335C17.5806 8.73335 17.4936 8.87558 17.3542 9.00002L14.2917 11.6459L15.2084 15.5834C15.25 15.7639 15.2361 15.9272 15.1667 16.0734C15.0973 16.2195 15 16.3409 14.875 16.4375C14.75 16.5342 14.6042 16.5897 14.4375 16.6042C14.2709 16.6186 14.1111 16.577 13.9584 16.4792L10.5 14.3959Z" fill="#FFAB0D"/>
</svg>
